<svg width="81" height="63" viewBox="0 0 81 63" fill="none" xmlns="http://www.w3.org/2000/svg">
<path id="Vector 10" d="M7.60414 17.2056C21.2481 12.1441 34.7017 6.07474 48.9812 2.97637C49.1148 2.94737 54.7486 1.52585 55.0972 2.16505C55.3358 2.60247 52.4067 5.1745 52.3513 5.22309C41.7324 14.5379 28.0088 20.3759 15.6549 26.9414C11.3039 29.2536 6.42429 31.4454 2.54902 34.5552C0.218928 36.4251 6.02335 36.2043 6.60559 36.1779C26.6307 35.2676 46.3604 29.1429 65.7067 24.4138C69.1911 23.5621 72.9955 22.6232 76.5659 21.9799C77.4669 21.8175 79.9593 21.27 79.3119 21.9174C78.2396 22.9898 76.6191 23.3138 75.2553 23.9769C71.358 25.8719 69.5087 26.8084 65.3947 28.9696C48.8863 37.6422 31.1219 46.0292 17.9016 59.55C16.5191 60.9639 18.602 60.4913 19.5554 60.3613C22.6628 59.9375 25.5593 58.357 28.3863 57.0848" stroke="#FF6B82" stroke-width="3" stroke-linecap="round"/>
</svg>
